<svg xmlns="http://www.w3.org/2000/svg" viewBox="0 0 512 512"><g id="レイヤー_2" data-name="レイヤー 2"><g id="_2" data-name="2"><rect x="198.74" y="132.05" width="114.52" height="19.09"/><circle cx="333.43" cy="360.05" r="17.54"/><path d="M181.37,453.42l-25.94,38.06a256.76,256.76,0,0,0,200.24.39l-25-38.45Z"/><path d="M164.28,193.74v63.45a15,15,0,0,0,15,15h153.4a15,15,0,0,0,15-15V193.74a15,15,0,0,0-15-15H179.31A15,15,0,0,0,164.28,193.74Z"/><path d="M256,0C114.61,0,0,114.61,0,256A255.88,255.88,0,0,0,127.77,477.61l41.17-61.13a56.29,56.29,0,0,1-46.55-55.36V168.5a66.13,66.13,0,0,1,66.13-66.14h135a66.14,66.14,0,0,1,66.14,66.14V361.12a56.3,56.3,0,0,1-46.54,55.36l40.34,61.6A255.89,255.89,0,0,0,512,256C512,114.61,397.38,0,256,0Z"/><path d="M178.6,377.59a17.54,17.54,0,1,0-17.54-17.54A17.53,17.53,0,0,0,178.6,377.59Z"/><polygon points="205.25 417.32 192.44 436.69 319.58 436.69 306.77 417.32 205.25 417.32"/></g></g></svg>